<?xml version="1.0" encoding="UTF-8"?>
<svg id="a" xmlns="http://www.w3.org/2000/svg" viewBox="0 0 56 56">
  <g>
    <rect x="2.61" y="2.61" width="50.79" height="50.79" fill="#161a1b"/>
    <path d="M54.38,54.38H1.62V1.62h52.74v52.74h.01ZM3.58,52.42h48.84V3.58H3.58v48.84Z" fill="#fff"/>
  </g>
  <path d="M56,56H0V0h56v56ZM.97,55.03h54.04V.97H.97v54.04h0Z" fill="#161a1b"/>
  <g>
    <path d="M12.34,17.99h8.36c2.15,0,3.77.56,4.87,1.66.83.83,1.25,1.87,1.25,3.09v.05c0,.57-.07,1.07-.22,1.51s-.34.82-.58,1.14c-.24.33-.52.62-.84.87-.33.25-.65.46-.99.64.55.19,1.05.42,1.5.68.45.26.84.57,1.17.92s.58.77.76,1.25c.18.48.27,1.04.27,1.68v.05c0,.83-.16,1.57-.49,2.21-.33.64-.79,1.18-1.4,1.6s-1.34.75-2.18.97c-.86.22-1.8.33-2.82.33h-8.63v-18.66h-.01ZM20.05,25.86c1.06,0,1.91-.21,2.55-.63s.96-1.06.96-1.9v-.05c0-.75-.28-1.33-.83-1.74s-1.37-.63-2.43-.63h-4.7v4.96h4.47-.02ZM21.01,33.76c1.11,0,2-.21,2.63-.64.64-.43.96-1.07.96-1.92v-.05c0-.8-.31-1.42-.94-1.85-.63-.44-1.59-.65-2.89-.65h-5.18v5.12s5.42,0,5.42,0Z" fill="#fff"/>
    <path d="M37.54,36.95c-1.15,0-2.11-.25-2.88-.75-.76-.5-1.39-1.08-1.89-1.73v2.19h-3.25v-18.64h3.17l.05,6.91c.51-.75,1.15-1.37,1.92-1.88.76-.5,1.71-.76,2.85-.76.83,0,1.65.16,2.43.48.78.32,1.48.79,2.1,1.41.61.62,1.11,1.39,1.48,2.3s.56,1.95.56,3.12v.05c0,1.18-.18,2.21-.55,3.12s-.86,1.67-1.46,2.29c-.61.62-1.31,1.09-2.11,1.41s-1.6.48-2.44.48h.01ZM36.8,34.15c.56,0,1.07-.11,1.56-.32.49-.21.92-.51,1.28-.9s.65-.86.87-1.41.32-1.19.32-1.88v-.05c0-.67-.11-1.29-.32-1.85-.21-.56-.5-1.04-.87-1.42-.36-.4-.79-.69-1.28-.91s-1-.32-1.56-.32-1.08.11-1.57.32-.93.52-1.3.92-.67.88-.9,1.42c-.22.56-.33,1.17-.33,1.84v.05c0,.67.11,1.29.33,1.85.22.56.52,1.04.9,1.42s.81.69,1.3.91c.5.21,1.03.32,1.57.32h0Z" fill="#fff"/>
  </g>
</svg>