<?xml version="1.0" encoding="UTF-8"?><svg id="Layer_2" xmlns="http://www.w3.org/2000/svg" viewBox="0 0 560.63 560.63"><defs><style>.cls-1{fill:#fff;}</style></defs><g id="Layer_1-2"><rect class="cls-1" width="560.63" height="560.63"/><path d="M107.44,169.85h92.25c23.7,0,41.62,6.08,53.76,18.25,9.2,9.22,13.8,20.61,13.8,34.14v.59c0,6.28-.83,11.82-2.48,16.63-1.65,4.81-3.79,9.03-6.42,12.65-2.63,3.64-5.74,6.82-9.34,9.57-3.6,2.75-7.25,5.11-10.94,7.07,6.04,2.16,11.55,4.66,16.52,7.5,4.98,2.85,9.27,6.24,12.88,10.16,3.61,3.92,6.39,8.53,8.34,13.83,1.95,5.3,2.93,11.48,2.93,18.55v.59c0,9.22-1.81,17.37-5.43,24.43-3.62,7.07-8.76,12.95-15.43,17.66s-14.69,8.29-24.09,10.74c-9.4,2.46-19.79,3.68-31.15,3.68h-95.19v-206.02ZM192.63,256.68c11.73,0,21.12-2.3,28.16-6.92,7.04-4.61,10.56-11.63,10.56-21.04v-.59c0-8.24-3.08-14.66-9.24-19.27-6.16-4.61-15.11-6.92-26.84-6.92h-51.92v54.75h49.28ZM203.21,343.79c12.33,0,22.01-2.35,29.06-7.06,7.04-4.71,10.56-11.77,10.56-21.19v-.59c0-8.83-3.48-15.65-10.42-20.45-6.94-4.81-17.56-7.21-31.84-7.21h-57.22v56.51h59.86Z"/><path d="M385.64,379.11c-12.72,0-23.29-2.75-31.71-8.24-8.41-5.5-15.36-11.87-20.85-19.13v24.13h-35.91v-205.78s35.02,0,35.02,0l.59,76.28c5.69-8.24,12.75-15.15,21.19-20.75,8.44-5.59,18.93-8.39,31.49-8.39,9.22,0,18.14,1.77,26.78,5.3,8.63,3.53,16.34,8.73,23.11,15.59,6.77,6.87,12.21,15.31,16.33,25.31,4.12,10.01,6.18,21.49,6.18,34.43v.59c0,12.95-2.01,24.43-6.02,34.43-4.01,10.01-9.4,18.44-16.15,25.31-6.75,6.87-14.48,12.07-23.19,15.6-8.71,3.53-17.67,5.3-26.87,5.3ZM377.52,348.21c6.08,0,11.82-1.17,17.22-3.53,5.39-2.36,10.1-5.64,14.13-9.86,4.02-4.22,7.21-9.42,9.57-15.6,2.35-6.18,3.53-13.1,3.53-20.75v-.59c0-7.45-1.18-14.27-3.53-20.45-2.36-6.18-5.55-11.43-9.57-15.75-4.02-4.32-8.73-7.65-14.13-10.01-5.4-2.35-11.14-3.53-17.22-3.53s-11.88,1.18-17.37,3.53c-5.49,2.35-10.3,5.74-14.42,10.15-4.12,4.41-7.41,9.66-9.86,15.75-2.45,6.08-3.68,12.86-3.68,20.31v.59c0,7.46,1.23,14.27,3.68,20.45,2.45,6.18,5.74,11.43,9.86,15.75,4.12,4.32,8.93,7.65,14.42,10.01,5.49,2.35,11.28,3.53,17.37,3.53Z"/></g></svg>